<svg xmlns="http://www.w3.org/2000/svg" viewBox="-8 -8 336 336">
  <!-- Spain silhouette — PartyMoon brand colours -->
  <path
    d="M49.936,254.128L47.805,243.455L57.348,231.248L60.869,222.356L51.975,212.653L59.108,190.997L48.825,171.006L59.942,168.29L60.961,152.381L65.13,147.472L65.408,120.977L77.36,111.708L70.133,94.458L55.124,93.229L50.77,97.615L35.576,97.615L29.091,80.666L18.622,85.723L9.265,94.516L10.562,69.807L0,54.547L36.41,29.014L67.91,35.396L102.467,35.215L129.89,41.279L151.199,39.42L192.797,40.56L203.08,54.309L250.423,70.221L259.78,62.695L288.778,78.487L318.61,73.944L320,94.165L295.634,117.043L262.652,124.27L260.336,135.729L244.493,154.433L234.58,181.671L244.586,200.622L229.763,215.263L224.204,236.479L204.748,242.962L186.497,267.743L153.885,268.231L129.334,267.634L113.214,278.959L103.393,290.986L90.793,288.348L81.251,277.607L73.932,259.147Z"
    fill="rgba(201,168,76,0.12)"
    stroke="#c9a84c"
    stroke-width="1.5"
    stroke-linejoin="round"
  />
</svg>