<svg xmlns="http://www.w3.org/2000/svg" viewBox="-8 -8 336 336">
  <!-- Germany silhouette — PartyMoon brand colours -->
  <path
    d="M254.278,54.894L260.282,77.14L253.059,88.75L262.534,104.071L269.007,126.892L266.943,141.479L277.637,168.147L266.005,172.497L259.157,167.725L252.59,175.648L233.828,183.609L224.166,193.825L205.216,202.746L209.813,214.852L212.627,231.851L225.854,241.48L240.582,258.587L231.389,276.745L222.008,281.722L225.76,307.081L223.321,313.616L215.16,305.706L202.683,304.527L184.015,311.462L161.032,309.829L157.373,320L144.146,309.306L136.36,311.462L108.405,299.606L103.058,307.997L80.919,307.736L84.202,279.998L97.335,253.013L59.812,245.67L47.523,235.179L49.024,217.524L43.77,208.396L46.772,180.68L42.363,136.986L58.029,136.986L64.596,121.068L71.069,81.705L66.284,66.94L71.35,57.652L93.114,55.267L97.992,64.938L115.628,43.22L109.718,26.478L108.499,0.922L128.199,6.904L144.897,0L145.272,17.441L171.632,27.917L171.351,43.746L197.899,35.396L212.533,23.142L241.896,40.741Z"
    fill="rgba(201,168,76,0.12)"
    stroke="#c9a84c"
    stroke-width="1.5"
    stroke-linejoin="round"
  />
</svg>