<svg xmlns="http://www.w3.org/2000/svg" viewBox="-8 -8 336 336">
  <!-- Greece silhouette — PartyMoon brand colours -->
  <path
    d="M265.635,303.115L261.065,316.255L208.835,320L209.227,312.655L164.962,304.018L171.752,285.092L191.599,300.105L219.803,297.544L246.832,300.707L245.918,308.452ZM144.592,23.719L171.491,25.109L200.478,11.841L226.071,28.702L258.975,24.128L259.367,0L276.995,12.908L265.765,43.037L257.147,48.477L235.08,47.098L216.147,42.55L172.274,55.042L197.344,81.808L178.933,89.506L158.825,89.586L139.63,65.065L132.841,75.539L140.936,103.811L159.086,125.825L145.376,136.027L165.615,157.514L183.503,170.902L184.026,196.901L150.468,184.705L161.175,208.126L138.194,212.914L151.904,252.892L127.879,253.502L98.108,233.843L84.528,197.366L78.13,166.758L64.028,145.41L45.356,118.768L43.005,105.405L59.849,82.45L61.939,67.001L73.821,60.138L74.474,47.585L98.238,43.281L112.079,32.782L131.665,33.76L137.672,25.354Z"
    fill="rgba(201,168,76,0.12)"
    stroke="#c9a84c"
    stroke-width="1.5"
    stroke-linejoin="round"
  />
</svg>